<svg width="101" height="20" viewBox="0 0 101 20" fill="none" xmlns="http://www.w3.org/2000/svg">
<path d="M84.8514 14.0121V13.4973L84.1871 13.8826L84.6288 14.6531L85.2964 14.2678L84.8514 14.0121V14.0121Z" fill="#F9E757"/>
<path d="M85.2964 14.2678L84.6288 14.6531L84.1871 13.8826L84.8514 13.4973V14.0121L85.2964 14.2678Z" fill="#F9E757"/>
<path d="M100.591 4.66637L92.6099 0.0598655C92.4737 -0.0198433 92.3043 -0.0198433 92.1648 0.0598655L84.1873 4.66637C84.0478 4.74608 83.9648 4.89221 83.9648 5.05163V14.2679C83.9648 14.4274 84.0478 14.5735 84.1873 14.6532L92.1648 19.2597C92.2346 19.2996 92.311 19.3195 92.3873 19.3195C92.4637 19.3195 92.5434 19.2996 92.6099 19.2597L100.591 14.6532C100.73 14.5735 100.813 14.4274 100.813 14.2679V5.05163C100.813 4.89221 100.73 4.74608 100.591 4.66637ZM85.2966 14.2679L92.3873 10.1729L99.4781 14.2679L92.3873 18.363L85.2966 14.2679L84.629 14.6532L84.1873 13.8827L84.8515 13.4974V5.31068L92.3873 0.95991L99.4781 5.05163L84.8515 13.4974V14.0122L85.2966 14.2679V14.2679Z" fill="#F9E757"/>
<path d="M4.53363 4.77698V13.2292H2.7979V4.77698H4.53363ZM7.13432 4.77698V6.14118H0.237849L0.237849 4.77698H7.13432ZM9.28802 8.31809V13.2292H7.61614V6.94809H9.18933L9.28802 8.31809ZM11.1805 6.90745L11.1515 8.45742C11.0702 8.44581 10.9715 8.43613 10.8554 8.42839C10.7432 8.41678 10.6406 8.41098 10.5477 8.41098C10.3117 8.41098 10.1065 8.44194 9.93238 8.50386C9.7621 8.56191 9.61891 8.64899 9.50281 8.76509C9.39057 8.88119 9.30543 9.02245 9.24738 9.18886C9.1932 9.35527 9.16224 9.54491 9.1545 9.75776L8.8178 9.65327C8.8178 9.24691 8.85844 8.87345 8.93971 8.53288C9.02098 8.18845 9.13902 7.88852 9.29382 7.63309C9.45249 7.37767 9.646 7.18029 9.87433 7.04097C10.1027 6.90165 10.3639 6.83199 10.658 6.83199C10.7509 6.83199 10.8457 6.83973 10.9425 6.85521C11.0392 6.86682 11.1186 6.88423 11.1805 6.90745ZM13.7347 6.94809V13.2292H12.0571V6.94809H13.7347ZM11.9526 5.31105C11.9526 5.06723 12.0377 4.86599 12.208 4.70732C12.3783 4.54864 12.6066 4.46931 12.893 4.46931C13.1755 4.46931 13.4019 4.54864 13.5722 4.70732C13.7463 4.86599 13.8334 5.06723 13.8334 5.31105C13.8334 5.55486 13.7463 5.75611 13.5722 5.91478C13.4019 6.07345 13.1755 6.15279 12.893 6.15279C12.6066 6.15279 12.3783 6.07345 12.208 5.91478C12.0377 5.75611 11.9526 5.55486 11.9526 5.31105ZM16.8811 4.31257V13.2292H15.2034V4.31257H16.8811ZM19.894 4.31257V13.2292H18.2221V4.31257H19.894ZM19.6559 9.86806H19.1973C19.2012 9.43074 19.2593 9.02825 19.3715 8.6606C19.4837 8.28907 19.6443 7.96785 19.8533 7.69695C20.0623 7.42217 20.3119 7.20932 20.6022 7.05839C20.8963 6.90745 21.2214 6.83199 21.5774 6.83199C21.887 6.83199 22.1676 6.87649 22.4192 6.9655C22.6746 7.05065 22.8933 7.18997 23.0752 7.38347C23.2609 7.57311 23.4041 7.82272 23.5047 8.13233C23.6054 8.44194 23.6557 8.81733 23.6557 9.25852V13.2292H21.9722V9.24691C21.9722 8.96827 21.9315 8.74961 21.8503 8.59093C21.7729 8.42839 21.6587 8.31422 21.5078 8.24843C21.3607 8.17877 21.1788 8.14394 20.9621 8.14394C20.7221 8.14394 20.517 8.18845 20.3468 8.27746C20.1803 8.36647 20.0468 8.49031 19.9462 8.64899C19.8456 8.80379 19.772 8.98568 19.7256 9.19467C19.6792 9.40365 19.6559 9.62811 19.6559 9.86806ZM28.3172 11.8128V9.01471C28.3172 8.81346 28.2843 8.64125 28.2185 8.49805C28.1527 8.35099 28.0501 8.23682 27.9108 8.15555C27.7754 8.07428 27.5993 8.03364 27.3825 8.03364C27.1968 8.03364 27.0362 8.06654 26.9007 8.13233C26.7653 8.19425 26.6608 8.2852 26.5872 8.40517C26.5137 8.52127 26.4769 8.65866 26.4769 8.81733H24.8051C24.8051 8.5503 24.867 8.29681 24.9908 8.05686C25.1147 7.81692 25.2946 7.606 25.5307 7.42411C25.7668 7.23834 26.0474 7.09322 26.3725 6.98872C26.7014 6.88423 27.0691 6.83199 27.4754 6.83199C27.9631 6.83199 28.3965 6.91326 28.7758 7.0758C29.155 7.23834 29.453 7.48216 29.6698 7.80724C29.8904 8.13233 30.0006 8.53869 30.0006 9.02632V11.7141C30.0006 12.0585 30.0219 12.341 30.0645 12.5616C30.1071 12.7784 30.169 12.968 30.2503 13.1305V13.2292H28.561C28.4797 13.0589 28.4178 12.8461 28.3752 12.5907C28.3365 12.3314 28.3172 12.0721 28.3172 11.8128ZM28.5378 9.40365L28.5494 10.3499H27.6147C27.3942 10.3499 27.2026 10.375 27.04 10.4253C26.8775 10.4757 26.744 10.5473 26.6395 10.6401C26.535 10.7292 26.4576 10.8336 26.4073 10.9536C26.3608 11.0736 26.3376 11.2052 26.3376 11.3484C26.3376 11.4916 26.3705 11.6212 26.4363 11.7373C26.5021 11.8495 26.5969 11.9385 26.7208 12.0043C26.8446 12.0663 26.9897 12.0972 27.1561 12.0972C27.4077 12.0972 27.6264 12.0469 27.8121 11.9463C27.9979 11.8457 28.1411 11.7218 28.2417 11.5748C28.3462 11.4277 28.4004 11.2884 28.4042 11.1568L28.8454 11.865C28.7835 12.0237 28.6984 12.1882 28.59 12.3585C28.4855 12.5287 28.352 12.6893 28.1895 12.8403C28.0269 12.9873 27.8315 13.1092 27.6031 13.206C27.3748 13.2989 27.1039 13.3453 26.7904 13.3453C26.3918 13.3453 26.03 13.266 25.7049 13.1073C25.3837 12.9448 25.1282 12.7222 24.9386 12.4397C24.7528 12.1533 24.6599 11.8283 24.6599 11.4645C24.6599 11.1355 24.7219 10.8433 24.8457 10.5879C24.9696 10.3325 25.1514 10.1177 25.3914 9.94353C25.6352 9.7655 25.939 9.63198 26.3028 9.54297C26.6666 9.45009 27.0884 9.40365 27.5683 9.40365H28.5378ZM40.0261 11.8708V13.2292H35.5271V11.8708H40.0261ZM36.096 4.77698V13.2292H34.3545V4.77698H36.096ZM39.4398 8.21941V9.54297H35.5271V8.21941H39.4398ZM40.0203 4.77698V6.14118H35.5271V4.77698H40.0203ZM42.2843 6.94809L43.3234 8.85797L44.3915 6.94809H46.1737L44.3973 10.019L46.255 13.2292H44.467L43.335 11.209L42.203 13.2292H40.415L42.2727 10.019L40.4963 6.94809H42.2843ZM48.6583 8.15555V15.6441H46.9864V6.94809H48.5364L48.6583 8.15555ZM52.6348 10.019V10.1409C52.6348 10.5976 52.5806 11.0213 52.4722 11.4122C52.3677 11.8031 52.2129 12.1437 52.0078 12.4339C51.8027 12.7203 51.5473 12.9448 51.2415 13.1073C50.9397 13.266 50.5914 13.3453 50.1966 13.3453C49.8135 13.3453 49.4807 13.2679 49.1981 13.1131C48.9156 12.9583 48.6776 12.7416 48.4841 12.4629C48.2945 12.1804 48.1416 11.8534 48.0255 11.4819C47.9094 11.1104 47.8204 10.7117 47.7585 10.286V9.96675C47.8204 9.51008 47.9094 9.09211 48.0255 8.71284C48.1416 8.3297 48.2945 7.99881 48.4841 7.72017C48.6776 7.43765 48.9137 7.21899 49.1923 7.06419C49.4749 6.90939 49.8057 6.83199 50.185 6.83199C50.5836 6.83199 50.9339 6.90745 51.2357 7.05839C51.5415 7.20932 51.7969 7.42604 52.002 7.70856C52.211 7.99107 52.3677 8.32777 52.4722 8.71865C52.5806 9.10952 52.6348 9.54297 52.6348 10.019ZM50.9571 10.1409V10.019C50.9571 9.75196 50.9339 9.50621 50.8874 9.28174C50.8449 9.05341 50.7752 8.8541 50.6784 8.68382C50.5856 8.51353 50.4617 8.38195 50.3069 8.28907C50.156 8.19232 49.9722 8.14394 49.7554 8.14394C49.5271 8.14394 49.3317 8.18071 49.1691 8.25424C49.0104 8.32777 48.8808 8.4342 48.7802 8.57352C48.6796 8.71284 48.6041 8.87926 48.5538 9.07276C48.5035 9.26626 48.4725 9.48492 48.4609 9.72874V10.5356C48.4802 10.822 48.5344 11.0794 48.6234 11.3077C48.7125 11.5322 48.8498 11.7102 49.0356 11.8418C49.2214 11.9734 49.4652 12.0392 49.767 12.0392C49.9876 12.0392 50.1734 11.9908 50.3243 11.894C50.4753 11.7934 50.5972 11.656 50.6901 11.4819C50.7868 11.3077 50.8545 11.1065 50.8932 10.8781C50.9358 10.6498 50.9571 10.4041 50.9571 10.1409ZM55.4386 4.31257V13.2292H53.761V4.31257H55.4386ZM56.5532 10.1525V10.0306C56.5532 9.57006 56.619 9.14629 56.7506 8.75928C56.8822 8.36841 57.0737 8.02977 57.3253 7.74339C57.5769 7.457 57.8865 7.23447 58.2541 7.0758C58.6218 6.91326 59.0436 6.83199 59.5196 6.83199C59.9957 6.83199 60.4194 6.91326 60.791 7.0758C61.1625 7.23447 61.474 7.457 61.7256 7.74339C61.981 8.02977 62.1745 8.36841 62.3061 8.75928C62.4377 9.14629 62.5035 9.57006 62.5035 10.0306V10.1525C62.5035 10.6092 62.4377 11.033 62.3061 11.4238C62.1745 11.8108 61.981 12.1495 61.7256 12.4397C61.474 12.7261 61.1644 12.9486 60.7968 13.1073C60.4291 13.266 60.0073 13.3453 59.5312 13.3453C59.0552 13.3453 58.6315 13.266 58.2599 13.1073C57.8923 12.9486 57.5807 12.7261 57.3253 12.4397C57.0737 12.1495 56.8822 11.8108 56.7506 11.4238C56.619 11.033 56.5532 10.6092 56.5532 10.1525ZM58.2251 10.0306V10.1525C58.2251 10.4157 58.2483 10.6614 58.2948 10.8898C58.3412 11.1181 58.4147 11.3193 58.5154 11.4935C58.6198 11.6638 58.7553 11.7973 58.9217 11.894C59.0881 11.9908 59.2913 12.0392 59.5312 12.0392C59.7634 12.0392 59.9628 11.9908 60.1292 11.894C60.2956 11.7973 60.4291 11.6638 60.5297 11.4935C60.6303 11.3193 60.7039 11.1181 60.7503 10.8898C60.8006 10.6614 60.8258 10.4157 60.8258 10.1525V10.0306C60.8258 9.77518 60.8006 9.53523 60.7503 9.31077C60.7039 9.08243 60.6284 8.88119 60.5239 8.70704C60.4233 8.52901 60.2898 8.38969 60.1234 8.28907C59.957 8.18845 59.7557 8.13814 59.5196 8.13814C59.2836 8.13814 59.0823 8.18845 58.9159 8.28907C58.7534 8.38969 58.6198 8.52901 58.5154 8.70704C58.4147 8.88119 58.3412 9.08243 58.2948 9.31077C58.2483 9.53523 58.2251 9.77518 58.2251 10.0306ZM65.2028 8.31809V13.2292L63.531 13.2292V6.94809H65.1041L65.2028 8.31809ZM67.0953 6.90745L67.0663 8.45742C66.985 8.44581 66.8863 8.43613 66.7702 8.42839C66.658 8.41678 66.5554 8.41098 66.4625 8.41098C66.2265 8.41098 66.0214 8.44194 65.8472 8.50386C65.6769 8.56191 65.5337 8.64899 65.4176 8.76509C65.3054 8.88119 65.2203 9.02245 65.1622 9.18886C65.108 9.35527 65.0771 9.54491 65.0693 9.75776L64.7326 9.65327C64.7326 9.24691 64.7733 8.87345 64.8545 8.53288C64.9358 8.18845 65.0538 7.88852 65.2086 7.63309C65.3673 7.37767 65.5608 7.18029 65.7892 7.04097C66.0175 6.90165 66.2787 6.83199 66.5728 6.83199C66.6657 6.83199 66.7605 6.83973 66.8573 6.85521C66.954 6.86682 67.0334 6.88423 67.0953 6.90745ZM70.6596 13.3453C70.172 13.3453 69.7347 13.2679 69.3477 13.1131C68.9607 12.9544 68.6317 12.7358 68.3608 12.4571C68.0938 12.1785 67.8887 11.8553 67.7455 11.4877C67.6023 11.1162 67.5307 10.7214 67.5307 10.3034V10.0712C67.5307 9.59522 67.5984 9.15984 67.7339 8.76509C67.8693 8.37034 68.0628 8.02784 68.3144 7.73758C68.5698 7.44733 68.8794 7.2248 69.2432 7.07C69.607 6.91132 70.0172 6.83199 70.4739 6.83199C70.9189 6.83199 71.3137 6.90552 71.6581 7.05258C72.0026 7.19964 72.2909 7.40863 72.5231 7.67953C72.7592 7.95044 72.9372 8.27552 73.0572 8.65479C73.1771 9.03019 73.2371 9.44816 73.2371 9.90869V10.6053H68.2447V9.49073H71.5943V9.36301C71.5943 9.13081 71.5517 8.92376 71.4666 8.74187C71.3853 8.5561 71.2614 8.40904 71.095 8.30068C70.9286 8.19232 70.7158 8.13814 70.4565 8.13814C70.2359 8.13814 70.0462 8.18651 69.8876 8.28326C69.7289 8.38002 69.5992 8.51547 69.4986 8.68962C69.4019 8.86377 69.3283 9.06889 69.278 9.30496C69.2316 9.53717 69.2084 9.79259 69.2084 10.0712V10.3034C69.2084 10.555 69.2432 10.7872 69.3129 11.0001C69.3864 11.2129 69.4889 11.3967 69.6205 11.5515C69.756 11.7063 69.9185 11.8263 70.1082 11.9115C70.3017 11.9966 70.5203 12.0392 70.7641 12.0392C71.066 12.0392 71.3466 11.9811 71.6059 11.865C71.869 11.745 72.0954 11.5651 72.2851 11.3251L73.0978 12.2075C72.9662 12.3972 72.7862 12.579 72.5579 12.7532C72.3334 12.9274 72.0625 13.0705 71.7452 13.1828C71.4278 13.2911 71.066 13.3453 70.6596 13.3453ZM75.861 8.31809V13.2292H74.1891V6.94809H75.7623L75.861 8.31809ZM77.7535 6.90745L77.7245 8.45742C77.6432 8.44581 77.5445 8.43613 77.4284 8.42839C77.3162 8.41678 77.2136 8.41098 77.1207 8.41098C76.8846 8.41098 76.6795 8.44194 76.5054 8.50386C76.3351 8.56191 76.1919 8.64899 76.0758 8.76509C75.9636 8.88119 75.8784 9.02245 75.8204 9.18886C75.7662 9.35527 75.7352 9.54491 75.7275 9.75776L75.3908 9.65327C75.3908 9.24691 75.4314 8.87345 75.5127 8.53288C75.594 8.18845 75.712 7.88852 75.8668 7.63309C76.0255 7.37767 76.219 7.18029 76.4473 7.04097C76.6757 6.90165 76.9369 6.83199 77.231 6.83199C77.3239 6.83199 77.4187 6.83973 77.5155 6.85521C77.6122 6.86682 77.6916 6.88423 77.7535 6.90745Z" fill="#F9E757"/>
</svg>
