<svg width="64" height="45" viewBox="0 0 64 45" fill="none" xmlns="http://www.w3.org/2000/svg">
<g clip-path="url(#clip0_337_386)">
<path d="M64 0H0V44.8H64V0Z" fill="#00923F"/>
<path fill-rule="evenodd" clip-rule="evenodd" d="M31.5586 5.44L4.99859 22.4L31.5586 39.36L58.1186 22.4L31.5586 5.44Z" fill="#F8C300"/>
<path d="M32.1755 33.577C38.3484 33.577 43.3525 28.5729 43.3525 22.4C43.3525 16.2271 38.3484 11.223 32.1755 11.223C26.0027 11.223 20.9986 16.2271 20.9986 22.4C20.9986 28.5729 26.0027 33.577 32.1755 33.577Z" fill="#28166F"/>
<path fill-rule="evenodd" clip-rule="evenodd" d="M32.9724 24.8109L33.1074 25.152L33.4729 25.175L33.1913 25.4093L33.2815 25.7645L32.9724 25.568L32.6626 25.7645L32.7535 25.4093L32.4713 25.175L32.8367 25.152L32.9724 24.8109ZM41.3282 26.0038L41.4434 26.2944L41.7551 26.3142L41.5145 26.5139L41.5919 26.816L41.3282 26.649L41.0639 26.816L41.1414 26.5139L40.9014 26.3142L41.213 26.2944L41.3282 26.0038ZM40.1321 26.9299L40.2678 27.2704L40.6332 27.2941L40.351 27.5277L40.4418 27.8829L40.1321 27.687L39.8223 27.8829L39.9132 27.5277L39.631 27.2941L39.997 27.2704L40.1321 26.9299ZM39.6886 25.7312L39.8492 26.135L40.2825 26.1632L39.9484 26.4403L40.0559 26.8608L39.6886 26.6285L39.3218 26.8608L39.4294 26.4403L39.0953 26.1632L39.5286 26.135L39.6886 25.7312ZM39.6028 27.8189L39.7378 28.1594L40.1039 28.1824L39.8217 28.4166L39.9126 28.7718L39.6028 28.5754L39.293 28.7718L39.3839 28.4166L39.1017 28.1824L39.4671 28.1594L39.6028 27.8189ZM38.5564 28.3693L38.6716 28.6592L38.9833 28.6797L38.7433 28.8787L38.8207 29.1814L38.5564 29.0144L38.2927 29.1814L38.3702 28.8787L38.1295 28.6797L38.4412 28.6592L38.5564 28.3693ZM37.4806 29.3696L37.6162 29.7101L37.9817 29.7338L37.6994 29.9674L37.7903 30.3226L37.4806 30.1261L37.1714 30.3226L37.2617 29.9674L36.9801 29.7338L37.3455 29.7101L37.4806 29.3696ZM37.4678 30.6214L37.583 30.912L37.8946 30.9318L37.6546 31.1315L37.7321 31.4342L37.4678 31.2672L37.2041 31.4342L37.2815 31.1315L37.0409 30.9318L37.3526 30.912L37.4678 30.6214ZM37.4505 28.3584L37.5657 28.6483L37.8774 28.6682L37.6367 28.8678L37.7142 29.1706L37.4505 29.0035L37.1862 29.1706L37.2636 28.8678L37.023 28.6682L37.3353 28.6483L37.4505 28.3584ZM36.1321 28.6176L36.2479 28.9082L36.5596 28.928L36.319 29.1277L36.3964 29.4304L36.1321 29.2634L35.8684 29.4304L35.9458 29.1277L35.7052 28.928L36.0169 28.9082L36.1321 28.6176ZM35.2866 17.8906L35.4473 18.2944L35.8806 18.3219L35.5465 18.599L35.654 19.0195L35.2866 18.7872L34.9199 19.0195L35.0274 18.599L34.6934 18.3219L35.1266 18.2944L35.2866 17.8906ZM35.11 29.641L35.245 29.9821L35.6111 30.0051L35.3289 30.2394L35.4198 30.5939L35.11 30.3981L34.8002 30.5939L34.8911 30.2394L34.6089 30.0051L34.9743 29.9821L35.11 29.641ZM34.4879 21.2877L34.6038 21.5776L34.9154 21.5981L34.6748 21.7971L34.7522 22.0998L34.4879 21.9328L34.2242 22.0998L34.3017 21.7971L34.061 21.5981L34.3727 21.5776L34.4879 21.2877ZM34.1916 28.336L34.3068 28.6266L34.6185 28.6464L34.3785 28.8454L34.4559 29.1482L34.1916 28.9811L33.9279 29.1482L34.0054 28.8454L33.7647 28.6464L34.0764 28.6266L34.1916 28.336ZM31.9478 23.8528L32.0828 24.1933L32.4489 24.217L32.1666 24.4506L32.2575 24.8058L31.9478 24.6099L31.638 24.8058L31.7289 24.4506L31.4466 24.217L31.8121 24.1933L31.9478 23.8528ZM31.8825 27.0234L32.0425 27.4272L32.4764 27.4547L32.1417 27.7318L32.2492 28.153L31.8825 27.9206L31.5158 28.153L31.6233 27.7318L31.2886 27.4547L31.7225 27.4272L31.8825 27.0234ZM31.919 31.0662L31.9804 31.2211L32.1468 31.232L32.0188 31.3382L32.0598 31.5002L31.919 31.4106L31.7782 31.5002L31.8191 31.3382L31.6911 31.232L31.8575 31.2211L31.919 31.0662ZM31.213 25.7229L31.2994 25.9405L31.5324 25.9552L31.3526 26.1043L31.4108 26.3309L31.213 26.2054L31.0159 26.3309L31.0735 26.1043L30.8937 25.9552L31.1273 25.9405L31.213 25.7229ZM30.3964 25.017L30.5116 25.3075L30.8233 25.3274L30.5826 25.5264L30.6601 25.8291L30.3964 25.6621L30.1321 25.8291L30.2095 25.5264L29.9689 25.3274L30.2812 25.3075L30.3964 25.017ZM27.4934 22.3482L27.6284 22.6893L27.9938 22.7123L27.7122 22.9466L27.8025 23.3018L27.4934 23.1053L27.1836 23.3018L27.2745 22.9466L26.9922 22.7123L27.3577 22.6893L27.4934 22.3482ZM27.1663 27.9936L27.3263 28.3974L27.7602 28.4256L27.4255 28.7027L27.533 29.1232L27.1663 28.8909L26.799 29.1232L26.9071 28.7027L26.5724 28.4256L27.0057 28.3974L27.1663 27.9936ZM25.9388 25.7651L26.0745 26.1056L26.4399 26.1293L26.1577 26.3629L26.2486 26.7181L25.9388 26.5216L25.6297 26.7181L25.7199 26.3629L25.4383 26.1293L25.8038 26.1056L25.9388 25.7651ZM25.5343 27.0208L25.6495 27.3114L25.9612 27.3312L25.7206 27.5302L25.798 27.833L25.5343 27.6659L25.27 27.833L25.3474 27.5302L25.1068 27.3312L25.4185 27.3114L25.5343 27.0208ZM24.7004 24.1645L24.7868 24.3814L25.0198 24.3968L24.8399 24.5459L24.8982 24.7718L24.7004 24.647L24.5033 24.7718L24.5609 24.5459L24.381 24.3968L24.6146 24.3814L24.7004 24.1645ZM23.6745 24.615L23.8345 25.0189L24.2684 25.0464L23.9337 25.3235L24.0412 25.7446L23.6745 25.5123L23.3078 25.7446L23.4153 25.3235L23.0806 25.0464L23.5145 25.0189L23.6745 24.615ZM22.7535 19.9648L22.9142 20.3686L23.3474 20.3962L23.0134 20.6733L23.1209 21.0944L22.7535 20.8621L22.3868 21.0944L22.4943 20.6733L22.1602 20.3962L22.5935 20.3686L22.7535 19.9648ZM22.5014 25.6774L22.637 26.0186L23.0025 26.0416L22.7202 26.2758L22.8111 26.6304L22.5014 26.4346L22.1916 26.6304L22.2825 26.2758L22.0002 26.0416L22.3663 26.0186L22.5014 25.6774Z" fill="white"/>
<path fill-rule="evenodd" clip-rule="evenodd" d="M25.0498 18.9472C31.6981 18.9472 37.7928 21.3926 42.4821 25.4285C42.637 24.8845 42.7515 24.3238 42.8226 23.7504C37.9605 19.8067 31.773 17.4387 25.0498 17.4387C23.8843 17.4387 22.7349 17.5117 21.6053 17.6499C21.364 18.1651 21.1605 18.7008 20.9986 19.2544C22.3202 19.0522 23.6731 18.9472 25.0498 18.9472Z" fill="white"/>
<path fill-rule="evenodd" clip-rule="evenodd" d="M22.2133 18.3667C22.2223 18.4762 22.2543 18.5587 22.308 18.615C22.3618 18.6714 22.4322 18.6957 22.5199 18.6886C22.6076 18.681 22.6741 18.6451 22.7176 18.5798C22.7618 18.5152 22.7784 18.4282 22.7695 18.3187C22.7599 18.2093 22.7279 18.1267 22.6741 18.0704C22.6197 18.0141 22.5487 17.9898 22.4604 17.9974C22.3727 18.0045 22.3074 18.041 22.2639 18.1056C22.221 18.1696 22.2037 18.2566 22.2133 18.3667ZM22.0047 18.3846C21.9906 18.224 22.0239 18.0928 22.1032 17.991C22.1826 17.8893 22.2965 17.8323 22.445 17.8195C22.5935 17.8067 22.7157 17.8438 22.8117 17.9302C22.9077 18.0173 22.9628 18.1408 22.9762 18.3008C22.9903 18.4614 22.957 18.5926 22.877 18.6944C22.7976 18.7962 22.6831 18.8538 22.5352 18.8666C22.3861 18.8794 22.2645 18.8422 22.1685 18.7552C22.0732 18.6682 22.0181 18.5446 22.0047 18.3846ZM23.6277 18.199L23.869 18.1907C23.9215 18.1888 23.9592 18.1773 23.9836 18.1549C24.0072 18.1331 24.0181 18.0992 24.0168 18.0538C24.0156 18.0102 24.0021 17.9776 23.9778 17.9565C23.9528 17.9347 23.917 17.9245 23.8696 17.9264L23.6188 17.9347L23.6277 18.199ZM23.4415 18.7667L23.4082 17.7696L23.892 17.7536C24.0002 17.7498 24.0815 17.7702 24.1352 17.815C24.1896 17.8598 24.2178 17.9302 24.221 18.0256C24.2229 18.0864 24.212 18.1376 24.1877 18.1792C24.164 18.2208 24.1282 18.2496 24.0808 18.2662C24.1244 18.2803 24.1564 18.3027 24.1756 18.3334C24.1948 18.3648 24.2069 18.4134 24.212 18.48L24.2204 18.5978V18.6016C24.2236 18.6611 24.2376 18.697 24.2626 18.7085L24.2632 18.7392L24.0386 18.7469C24.0309 18.7328 24.0252 18.7162 24.0207 18.6957C24.0162 18.6752 24.0124 18.6509 24.0111 18.6221L24.0047 18.5171C24.0002 18.4557 23.9874 18.4141 23.9656 18.3936C23.9439 18.3725 23.9055 18.3629 23.8511 18.3648L23.6335 18.3718L23.6469 18.7597L23.4415 18.7667ZM24.9135 18.5427L25.078 18.5459C25.1733 18.5478 25.2431 18.5242 25.2866 18.4749C25.3301 18.4262 25.3532 18.345 25.3551 18.2336C25.357 18.1216 25.3391 18.0397 25.3 17.9866C25.261 17.9334 25.1996 17.9059 25.1151 17.9046L24.9256 17.9008L24.9135 18.5427ZM24.7087 18.7187L24.7279 17.7216L25.1183 17.7286C25.2719 17.7318 25.3852 17.7754 25.4588 17.8592C25.5324 17.943 25.5676 18.0691 25.5644 18.2374C25.5624 18.3283 25.5471 18.4083 25.5183 18.4774C25.4888 18.5466 25.4472 18.6016 25.3941 18.6432C25.3538 18.6739 25.3084 18.6957 25.2572 18.7085C25.2066 18.7213 25.1356 18.727 25.044 18.7251L24.7087 18.7187ZM25.9746 18.7411L26.0284 17.7453L26.7522 17.7843L26.7426 17.9571L26.221 17.929L26.2101 18.1414L26.6863 18.167L26.6773 18.3373L26.2005 18.3117L26.1871 18.5677L26.7324 18.5971L26.7228 18.7814L25.9746 18.7411ZM27.149 18.8109L27.2546 17.8189L27.5567 17.8509L27.6732 18.6272L27.9484 17.8931L28.2511 17.9251L28.1455 18.9171L27.9541 18.8966L28.0392 18.0966L27.7525 18.8755L27.5439 18.8531L27.4255 18.0314L27.3397 18.8314L27.149 18.8109ZM29.7922 19.1514L30.0008 18.176L30.7093 18.3277L30.6728 18.4973L30.1628 18.3878L30.118 18.5958L30.5852 18.6957L30.5493 18.8627L30.0821 18.7622L30.0284 19.0131L30.5628 19.1277L30.5244 19.3082L29.7922 19.1514ZM32.4322 19.2128L32.6242 19.2646C32.676 19.2781 32.7164 19.2774 32.7458 19.2621C32.7752 19.2461 32.797 19.2141 32.8098 19.1648C32.8226 19.1194 32.82 19.0816 32.8034 19.0515C32.7868 19.0221 32.7554 19.001 32.7093 18.9888L32.5077 18.9344L32.4322 19.2128ZM32.3842 19.3869L32.292 19.7293L32.0936 19.6762L32.3528 18.713L32.7816 18.8282C32.8828 18.8557 32.9519 18.903 32.9903 18.969C33.028 19.0355 33.0332 19.12 33.0056 19.2218C32.9794 19.321 32.9333 19.3907 32.8674 19.4304C32.8021 19.4707 32.7215 19.4778 32.6274 19.4528L32.3842 19.3869ZM33.5836 19.5437L33.814 19.6147C33.8639 19.6301 33.9042 19.6314 33.9336 19.6179C33.9637 19.6051 33.9848 19.5763 33.9983 19.5328C34.0111 19.4918 34.0092 19.4566 33.9932 19.4285C33.9772 19.3997 33.9458 19.3786 33.901 19.3645L33.661 19.2909L33.5836 19.5437ZM33.2226 20.0198L33.5151 19.0662L33.9778 19.2083C34.0815 19.2403 34.1519 19.2864 34.1884 19.3459C34.2248 19.4061 34.2287 19.4816 34.2005 19.5731C34.1826 19.6314 34.1557 19.6762 34.1192 19.7075C34.0828 19.7389 34.0399 19.7549 33.99 19.7549C34.0264 19.7824 34.0495 19.8138 34.0578 19.8496C34.0655 19.8854 34.061 19.9354 34.0444 20L34.0136 20.1139C34.0136 20.1146 34.013 20.1158 34.0124 20.1178C33.9964 20.1747 33.9976 20.2131 34.0175 20.2323L34.0085 20.2618L33.7935 20.1952C33.7909 20.1798 33.7903 20.1619 33.7928 20.1408C33.7954 20.1203 33.7999 20.096 33.8076 20.0685L33.8357 19.9674C33.8517 19.9078 33.853 19.8643 33.8396 19.8381C33.8255 19.8112 33.7928 19.7894 33.7404 19.7734L33.5324 19.7094L33.4184 20.08L33.2226 20.0198ZM34.7413 20.0166C34.7036 20.1197 34.6978 20.208 34.7228 20.2822C34.7471 20.3558 34.8008 20.4077 34.8834 20.4378C34.9666 20.4678 35.0415 20.4634 35.1087 20.423C35.1759 20.3827 35.2284 20.311 35.2661 20.208C35.3032 20.105 35.3096 20.0166 35.2847 19.943C35.2591 19.8688 35.2047 19.8163 35.1215 19.7862C35.0396 19.7562 34.9647 19.7613 34.8981 19.801C34.8316 19.8413 34.7791 19.913 34.7413 20.0166ZM34.5448 19.9443C34.6005 19.7933 34.6856 19.6883 34.8002 19.6294C34.9154 19.5712 35.0428 19.5674 35.1829 19.6186C35.3224 19.6698 35.4178 19.7549 35.4684 19.8739C35.5189 19.9936 35.5164 20.1286 35.4607 20.2797C35.4056 20.4307 35.3205 20.5357 35.2047 20.5939C35.0895 20.6528 34.9615 20.6566 34.822 20.6054C34.6818 20.5542 34.5871 20.4691 34.5372 20.3501C34.4872 20.231 34.4898 20.0954 34.5448 19.9443ZM36.3906 21.1162C36.3368 21.1475 36.2837 21.1648 36.2306 21.168C36.1781 21.1712 36.1224 21.1603 36.0642 21.1354C35.9362 21.0803 35.8511 20.992 35.8095 20.8691C35.7679 20.7456 35.7781 20.6118 35.8396 20.4672C35.9023 20.3206 35.9919 20.2208 36.1084 20.167C36.2248 20.1126 36.3496 20.1139 36.4815 20.1702C36.5967 20.2195 36.6786 20.2867 36.7279 20.3731C36.7772 20.4589 36.788 20.553 36.7605 20.6554L36.5679 20.5734C36.5768 20.521 36.5685 20.4742 36.5429 20.4339C36.518 20.3936 36.4764 20.3616 36.4188 20.3366C36.342 20.304 36.2696 20.3066 36.2018 20.3443C36.134 20.3814 36.0789 20.4499 36.0367 20.5491C35.9938 20.649 35.9836 20.7366 36.0053 20.8128C36.0271 20.889 36.0776 20.944 36.157 20.9779C36.2172 21.0029 36.2748 21.0067 36.3298 20.9888C36.3855 20.9702 36.4309 20.9325 36.4668 20.8755L36.2588 20.7866L36.3253 20.6298L36.7055 20.7917L36.4936 21.2883L36.3676 21.2346L36.3906 21.1162ZM37.3391 21.0899L37.5554 21.1962C37.6028 21.2192 37.6418 21.2262 37.6732 21.2179C37.7045 21.2096 37.7301 21.1853 37.7506 21.1437C37.7692 21.1053 37.773 21.0707 37.7615 21.04C37.75 21.0093 37.7224 20.9837 37.6802 20.9626L37.4549 20.8525L37.3391 21.0899ZM36.9077 21.5034L37.3461 20.608L37.7807 20.8205C37.8786 20.8685 37.9407 20.9248 37.9669 20.9894C37.9938 21.0541 37.9861 21.1296 37.9439 21.2154C37.917 21.2704 37.8831 21.3101 37.8428 21.3357C37.8018 21.3606 37.7564 21.3696 37.7071 21.3619C37.7391 21.3952 37.7564 21.4291 37.7596 21.4662C37.7615 21.5027 37.7493 21.5514 37.7224 21.6122L37.6744 21.7203C37.6744 21.721 37.6738 21.7222 37.6725 21.7235C37.6476 21.7773 37.6431 21.8157 37.6597 21.8381L37.6463 21.865L37.444 21.7664C37.444 21.7504 37.4466 21.7325 37.4524 21.7126C37.4581 21.6922 37.4664 21.6691 37.4786 21.6435L37.5221 21.5482C37.5471 21.4918 37.5548 21.449 37.5458 21.4202C37.5362 21.3914 37.5068 21.3651 37.4581 21.3414L37.2629 21.2454L37.092 21.5936L36.9077 21.5034ZM38.0226 22.0762L38.5077 21.2045L39.1407 21.5565L39.0562 21.7082L38.5999 21.4541L38.4968 21.6403L38.9141 21.872L38.8309 22.0211L38.4136 21.7894L38.2888 22.0134L38.7669 22.279L38.6773 22.4403L38.0226 22.0762ZM39.1484 22.3853L39.3218 22.4896C39.3 22.5402 39.2981 22.5869 39.316 22.6285C39.334 22.6701 39.373 22.7091 39.4332 22.745C39.4844 22.7763 39.5279 22.7904 39.565 22.7872C39.6021 22.7853 39.6309 22.7661 39.6527 22.7302C39.6834 22.6784 39.6348 22.5907 39.5068 22.4672L39.5023 22.4627C39.4991 22.4595 39.494 22.4544 39.4869 22.448C39.4172 22.3821 39.3724 22.3283 39.3519 22.2861C39.3327 22.249 39.3256 22.2086 39.3295 22.1664C39.3333 22.1242 39.3487 22.0813 39.3756 22.0365C39.4255 21.9533 39.492 21.9072 39.5752 21.8963C39.6584 21.8867 39.7538 21.9136 39.86 21.9776C39.9599 22.0378 40.0239 22.1088 40.0514 22.1894C40.0796 22.2707 40.0687 22.3552 40.0207 22.4429L39.8517 22.3411C39.8735 22.2976 39.8767 22.2566 39.8607 22.2182C39.8453 22.1792 39.8108 22.1434 39.7583 22.112C39.7122 22.0838 39.6712 22.0717 39.6354 22.0742C39.5996 22.0774 39.572 22.0954 39.5516 22.1286C39.524 22.1741 39.5528 22.2368 39.636 22.3181C39.6584 22.3398 39.6764 22.3571 39.6885 22.3693C39.7416 22.423 39.7781 22.4621 39.7992 22.4864C39.8197 22.5114 39.8364 22.5344 39.8492 22.5574C39.8722 22.5978 39.8831 22.6387 39.8812 22.681C39.8792 22.7238 39.8652 22.7674 39.8383 22.8115C39.7845 22.9005 39.7135 22.951 39.6239 22.9638C39.5343 22.9766 39.4351 22.9504 39.3263 22.8845C39.2188 22.8198 39.149 22.7443 39.1183 22.6573C39.0876 22.5709 39.0972 22.48 39.1484 22.3853ZM40.1992 23.0426L40.3669 23.1565C40.3426 23.2058 40.3388 23.2518 40.3548 23.2947C40.3701 23.337 40.4072 23.3779 40.4655 23.417C40.5148 23.4502 40.5576 23.4669 40.5948 23.4662C40.6319 23.4656 40.662 23.4483 40.685 23.4138C40.7189 23.3632 40.6748 23.2736 40.5532 23.143C40.5519 23.1418 40.55 23.1398 40.5493 23.1386C40.5455 23.1354 40.541 23.1302 40.5346 23.1226C40.4687 23.0534 40.4264 22.9978 40.4079 22.9542C40.3912 22.9165 40.3861 22.8755 40.3919 22.8339C40.3983 22.7917 40.4156 22.7494 40.445 22.7066C40.4994 22.6259 40.5685 22.583 40.6517 22.5773C40.7356 22.5715 40.829 22.6035 40.932 22.6733C41.0287 22.7386 41.0882 22.8122 41.1119 22.8947C41.1356 22.9773 41.1208 23.0605 41.0677 23.1456L40.9039 23.0355C40.9282 22.9933 40.9333 22.9523 40.9199 22.9126C40.9064 22.873 40.8738 22.8358 40.8232 22.8013C40.7784 22.7712 40.7381 22.7565 40.7023 22.7578C40.6664 22.759 40.6376 22.7757 40.6159 22.8077C40.5864 22.8512 40.6114 22.9158 40.6901 23.001C40.7119 23.024 40.7285 23.0426 40.74 23.0554C40.79 23.111 40.8245 23.1526 40.8444 23.1776C40.8636 23.2032 40.8789 23.2282 40.8904 23.2512C40.9116 23.2928 40.9199 23.3344 40.916 23.3766C40.9122 23.4189 40.8956 23.4618 40.8661 23.5046C40.8085 23.5904 40.7343 23.6378 40.644 23.6454C40.5538 23.6538 40.4565 23.6224 40.3509 23.5507C40.2472 23.4803 40.182 23.401 40.1557 23.3133C40.1288 23.225 40.1436 23.1347 40.1992 23.0426ZM41.4671 23.7152C41.4005 23.8029 41.3685 23.8861 41.3711 23.9635C41.373 24.0416 41.4095 24.1069 41.4792 24.16C41.5496 24.2131 41.6232 24.2304 41.6994 24.2118C41.7749 24.1933 41.846 24.1395 41.9125 24.0518C41.9784 23.9648 42.0104 23.8816 42.0079 23.8035C42.0047 23.7254 41.9682 23.6595 41.8978 23.6064C41.828 23.5533 41.7551 23.5366 41.6796 23.5558C41.604 23.5744 41.533 23.6275 41.4671 23.7152ZM41.3 23.5891C41.3973 23.4611 41.5093 23.3856 41.636 23.3626C41.7634 23.3402 41.8863 23.3741 42.0053 23.4637C42.1244 23.5539 42.1903 23.6627 42.2037 23.792C42.2165 23.9206 42.1749 24.0493 42.0783 24.1773C41.981 24.3059 41.8684 24.3814 41.741 24.4032C41.6136 24.4256 41.4901 24.3923 41.3717 24.3027C41.2527 24.2125 41.1868 24.103 41.174 23.9744C41.1612 23.8464 41.2028 23.7178 41.3 23.5891Z" fill="#00923F"/>
</g>
<defs>
<clipPath id="clip0_337_386">
<rect width="64" height="44.8" fill="white"/>
</clipPath>
</defs>
</svg>
