<svg width="50" height="33" viewBox="0 0 50 33" fill="none" xmlns="http://www.w3.org/2000/svg">
<g clip-path="url(#clip0_338_407)">
<path d="M49.5 0H0V33H49.5V0Z" fill="white" stroke="black"/>
<path d="M34.65 16.5C34.65 19.1256 33.607 21.6438 31.7504 23.5004C29.8938 25.357 27.3756 26.4 24.75 26.4C22.1244 26.4 19.6063 25.357 17.7496 23.5004C15.893 21.6438 14.85 19.1256 14.85 16.5C14.85 13.8744 15.893 11.3563 17.7496 9.49965C19.6063 7.64304 22.1244 6.60001 24.75 6.60001C27.3756 6.60001 29.8938 7.64304 31.7504 9.49965C33.607 11.3563 34.65 13.8744 34.65 16.5V16.5Z" fill="#BE0026"/>
</g>
<defs>
<clipPath id="clip0_338_407">
<rect width="49.5" height="33" fill="white"/>
</clipPath>
</defs>
</svg>
