<svg width="48" height="34" viewBox="0 0 48 34" fill="none" xmlns="http://www.w3.org/2000/svg">
<g clip-path="url(#clip0_337_393)">
<path d="M48 0H0V33.6H48V0Z" fill="#00923F"/>
<path fill-rule="evenodd" clip-rule="evenodd" d="M23.6689 4.07999L3.74893 16.8L23.6689 29.52L43.5889 16.8L23.6689 4.07999Z" fill="#F8C300"/>
<path d="M24.1317 25.1827C28.7613 25.1827 32.5144 21.4296 32.5144 16.8C32.5144 12.1703 28.7613 8.41727 24.1317 8.41727C19.502 8.41727 15.7489 12.1703 15.7489 16.8C15.7489 21.4296 19.502 25.1827 24.1317 25.1827Z" fill="#28166F"/>
<path fill-rule="evenodd" clip-rule="evenodd" d="M24.7293 18.6081L24.8306 18.864L25.1047 18.8813L24.8935 19.0569L24.9611 19.3233L24.7293 19.176L24.497 19.3233L24.5651 19.0569L24.3535 18.8813L24.6275 18.864L24.7293 18.6081ZM30.9962 19.5029L31.0826 19.7208L31.3163 19.7357L31.1359 19.8854L31.1939 20.112L30.9962 19.9867L30.7979 20.112L30.856 19.8854L30.676 19.7357L30.9098 19.7208L30.9962 19.5029ZM30.0991 20.1974L30.2008 20.4528L30.4749 20.4705L30.2632 20.6457L30.3314 20.9121L30.0991 20.7653L29.8667 20.9121L29.9349 20.6457L29.7232 20.4705L29.9978 20.4528L30.0991 20.1974ZM29.7664 19.2984L29.8869 19.6013L30.2119 19.6224L29.9613 19.8302L30.0419 20.1456L29.7664 19.9713L29.4914 20.1456L29.572 19.8302L29.3215 19.6224L29.6464 19.6013L29.7664 19.2984ZM29.7021 20.8641L29.8034 21.1195L30.0779 21.1368L29.8663 21.3125L29.9344 21.5789L29.7021 21.4315L29.4698 21.5789L29.5379 21.3125L29.3263 21.1368L29.6003 21.1195L29.7021 20.8641ZM28.9173 21.2769L29.0037 21.4944L29.2375 21.5097L29.0575 21.659L29.1155 21.8861L28.9173 21.7608L28.7195 21.8861L28.7776 21.659L28.5971 21.5097L28.8309 21.4944L28.9173 21.2769ZM28.1104 22.0272L28.2122 22.2825L28.4863 22.3003L28.2746 22.4755L28.3427 22.7419L28.1104 22.5945L27.8786 22.7419L27.9463 22.4755L27.7351 22.3003L28.0091 22.2825L28.1104 22.0272ZM28.1008 22.9661L28.1872 23.184L28.421 23.1989L28.241 23.3486L28.2991 23.5757L28.1008 23.4504L27.9031 23.5757L27.9611 23.3486L27.7807 23.1989L28.0144 23.184L28.1008 22.9661ZM28.0879 21.2688L28.1743 21.4862L28.408 21.5011L28.2275 21.6509L28.2856 21.8779L28.0879 21.7526L27.8896 21.8779L27.9477 21.6509L27.7672 21.5011L28.0015 21.4862L28.0879 21.2688ZM27.0991 21.4632L27.1859 21.6811L27.4197 21.696L27.2392 21.8457L27.2973 22.0728L27.0991 21.9475L26.9013 22.0728L26.9594 21.8457L26.7789 21.696L27.0127 21.6811L27.0991 21.4632ZM26.465 13.4179L26.5855 13.7208L26.9104 13.7414L26.6599 13.9493L26.7405 14.2646L26.465 14.0904L26.1899 14.2646L26.2706 13.9493L26.02 13.7414L26.345 13.7208L26.465 13.4179ZM26.3325 22.2307L26.4338 22.4865L26.7083 22.5038L26.4967 22.6795L26.5648 22.9454L26.3325 22.7985L26.1002 22.9454L26.1683 22.6795L25.9567 22.5038L26.2307 22.4865L26.3325 22.2307ZM25.8659 15.9657L25.9528 16.1832L26.1866 16.1985L26.0061 16.3478L26.0642 16.5749L25.8659 16.4496L25.6682 16.5749L25.7263 16.3478L25.5458 16.1985L25.7795 16.1832L25.8659 15.9657ZM25.6437 21.252L25.7301 21.4699L25.9639 21.4848L25.7839 21.6341L25.8419 21.8611L25.6437 21.7358L25.4459 21.8611L25.504 21.6341L25.3235 21.4848L25.5573 21.4699L25.6437 21.252ZM23.9608 17.8896L24.0621 18.1449L24.3367 18.1627L24.125 18.3379L24.1931 18.6043L23.9608 18.4574L23.7285 18.6043L23.7967 18.3379L23.585 18.1627L23.8591 18.1449L23.9608 17.8896ZM23.9119 20.2675L24.0319 20.5704L24.3573 20.591L24.1063 20.7989L24.1869 21.1147L23.9119 20.9405L23.6368 21.1147L23.7175 20.7989L23.4664 20.591L23.7919 20.5704L23.9119 20.2675ZM23.9392 23.2997L23.9853 23.4158L24.1101 23.424L24.0141 23.5037L24.0448 23.6251L23.9392 23.5579L23.8336 23.6251L23.8643 23.5037L23.7683 23.424L23.8931 23.4158L23.9392 23.2997ZM23.4098 19.2921L23.4746 19.4553L23.6493 19.4664L23.5144 19.5782L23.5581 19.7481L23.4098 19.6541L23.2619 19.7481L23.3051 19.5782L23.1703 19.4664L23.3455 19.4553L23.4098 19.2921ZM22.7973 18.7627L22.8837 18.9806L23.1175 18.9955L22.937 19.1448L22.9951 19.3718L22.7973 19.2465L22.5991 19.3718L22.6571 19.1448L22.4767 18.9955L22.7109 18.9806L22.7973 18.7627ZM20.62 16.7611L20.7213 17.0169L20.9954 17.0342L20.7842 17.2099L20.8519 17.4763L20.62 17.3289L20.3877 17.4763L20.4559 17.2099L20.2442 17.0342L20.5183 17.0169L20.62 16.7611ZM20.3747 20.9952L20.4947 21.2981L20.8202 21.3192L20.5691 21.527L20.6498 21.8424L20.3747 21.6681L20.0992 21.8424L20.1803 21.527L19.9293 21.3192L20.2543 21.2981L20.3747 20.9952ZM19.4541 19.3238L19.5559 19.5792L19.8299 19.5969L19.6183 19.7721L19.6864 20.0385L19.4541 19.8912L19.2223 20.0385L19.2899 19.7721L19.0787 19.5969L19.3528 19.5792L19.4541 19.3238ZM19.1507 20.2656L19.2371 20.4835L19.4709 20.4984L19.2904 20.6477L19.3485 20.8747L19.1507 20.7494L18.9525 20.8747L19.0106 20.6477L18.8301 20.4984L19.0639 20.4835L19.1507 20.2656ZM18.5253 18.1233L18.5901 18.2861L18.7648 18.2976L18.6299 18.4094L18.6736 18.5789L18.5253 18.4853L18.3775 18.5789L18.4207 18.4094L18.2858 18.2976L18.461 18.2861L18.5253 18.1233ZM17.7559 18.4613L17.8759 18.7641L18.2013 18.7848L17.9503 18.9926L18.0309 19.3085L17.7559 19.1342L17.4808 19.3085L17.5615 18.9926L17.3104 18.7848L17.6359 18.7641L17.7559 18.4613ZM17.0651 14.9736L17.1856 15.2765L17.5106 15.2971L17.26 15.5049L17.3407 15.8208L17.0651 15.6465L16.7901 15.8208L16.8707 15.5049L16.6202 15.2971L16.9451 15.2765L17.0651 14.9736ZM16.876 19.2581L16.9778 19.5139L17.2519 19.5312L17.0402 19.7069L17.1083 19.9728L16.876 19.8259L16.6437 19.9728L16.7119 19.7069L16.5002 19.5312L16.7747 19.5139L16.876 19.2581Z" fill="white"/>
<path fill-rule="evenodd" clip-rule="evenodd" d="M18.7873 14.2104C23.7736 14.2104 28.3446 16.0445 31.8616 19.0714C31.9777 18.6634 32.0637 18.2429 32.1169 17.8128C28.4704 14.855 23.8297 13.079 18.7873 13.079C17.9133 13.079 17.0512 13.1338 16.204 13.2374C16.023 13.6238 15.8704 14.0256 15.7489 14.4408C16.7401 14.2891 17.7549 14.2104 18.7873 14.2104Z" fill="white"/>
<path fill-rule="evenodd" clip-rule="evenodd" d="M16.66 13.775C16.6667 13.8571 16.6907 13.919 16.731 13.9613C16.7714 14.0035 16.8242 14.0218 16.8899 14.0165C16.9557 14.0107 17.0056 13.9838 17.0382 13.9349C17.0714 13.8864 17.0838 13.8211 17.0771 13.739C17.0699 13.657 17.0459 13.595 17.0056 13.5528C16.9648 13.5106 16.9115 13.4923 16.8453 13.4981C16.7795 13.5034 16.7306 13.5307 16.6979 13.5792C16.6658 13.6272 16.6528 13.6925 16.66 13.775ZM16.5035 13.7885C16.493 13.668 16.5179 13.5696 16.5774 13.4933C16.637 13.417 16.7224 13.3742 16.8338 13.3646C16.9451 13.355 17.0368 13.3829 17.1088 13.4477C17.1808 13.513 17.2221 13.6056 17.2322 13.7256C17.2427 13.8461 17.2178 13.9445 17.1578 14.0208C17.0982 14.0971 17.0123 14.1403 16.9014 14.1499C16.7896 14.1595 16.6984 14.1317 16.6264 14.0664C16.5549 14.0011 16.5136 13.9085 16.5035 13.7885ZM17.7208 13.6493L17.9018 13.643C17.9411 13.6416 17.9694 13.633 17.9877 13.6162C18.0054 13.5998 18.0136 13.5744 18.0126 13.5403C18.0117 13.5077 18.0016 13.4832 17.9834 13.4674C17.9646 13.451 17.9378 13.4434 17.9022 13.4448L17.7141 13.451L17.7208 13.6493ZM17.5811 14.075L17.5562 13.3272L17.919 13.3152C18.0002 13.3123 18.0611 13.3277 18.1014 13.3613C18.1422 13.3949 18.1634 13.4477 18.1658 13.5192C18.1672 13.5648 18.159 13.6032 18.1408 13.6344C18.123 13.6656 18.0962 13.6872 18.0606 13.6997C18.0933 13.7102 18.1173 13.727 18.1317 13.7501C18.1461 13.7736 18.1552 13.8101 18.159 13.86L18.1653 13.9483V13.9512C18.1677 13.9958 18.1782 14.0227 18.197 14.0314L18.1974 14.0544L18.029 14.0602C18.0232 14.0496 18.0189 14.0371 18.0155 14.0218C18.0122 14.0064 18.0093 13.9882 18.0083 13.9666L18.0035 13.8878C18.0002 13.8418 17.9906 13.8106 17.9742 13.7952C17.9579 13.7794 17.9291 13.7722 17.8883 13.7736L17.7251 13.7789L17.7352 14.0698L17.5811 14.075ZM18.6851 13.907L18.8085 13.9094C18.88 13.9109 18.9323 13.8931 18.965 13.8562C18.9976 13.8197 19.0149 13.7587 19.0163 13.6752C19.0178 13.5912 19.0043 13.5298 18.975 13.4899C18.9458 13.4501 18.8997 13.4294 18.8363 13.4285L18.6942 13.4256L18.6851 13.907ZM18.5315 14.039L18.5459 13.2912L18.8387 13.2965C18.9539 13.2989 19.0389 13.3315 19.0941 13.3944C19.1493 13.4573 19.1757 13.5518 19.1733 13.6781C19.1718 13.7462 19.1603 13.8062 19.1387 13.8581C19.1166 13.9099 19.0854 13.9512 19.0456 13.9824C19.0154 14.0054 18.9813 14.0218 18.9429 14.0314C18.905 14.041 18.8517 14.0453 18.783 14.0438L18.5315 14.039ZM19.481 14.0558L19.5213 13.309L20.0642 13.3382L20.057 13.4678L19.6658 13.4467L19.6576 13.6061L20.0147 13.6253L20.008 13.753L19.6504 13.7338L19.6403 13.9258L20.0493 13.9478L20.0421 14.0861L19.481 14.0558ZM20.3618 14.1082L20.441 13.3642L20.6675 13.3882L20.7549 13.9704L20.9613 13.4198L21.1883 13.4438L21.1091 14.1878L20.9656 14.1725L21.0294 13.5725L20.8144 14.1566L20.6579 14.1398L20.5691 13.5235L20.5048 14.1235L20.3618 14.1082ZM22.3442 14.3635L22.5006 13.632L23.032 13.7458L23.0046 13.873L22.6221 13.7909L22.5885 13.9469L22.9389 14.0218L22.912 14.147L22.5616 14.0717L22.5213 14.2598L22.9221 14.3458L22.8933 14.4811L22.3442 14.3635ZM24.3242 14.4096L24.4682 14.4485C24.507 14.4586 24.5373 14.4581 24.5594 14.4466C24.5814 14.4346 24.5978 14.4106 24.6074 14.3736C24.617 14.3395 24.615 14.3112 24.6026 14.2886C24.5901 14.2666 24.5666 14.2507 24.532 14.2416L24.3808 14.2008L24.3242 14.4096ZM24.2882 14.5402L24.219 14.797L24.0702 14.7571L24.2646 14.0347L24.5862 14.1211C24.6621 14.1418 24.7139 14.1773 24.7427 14.2267C24.771 14.2766 24.7749 14.34 24.7542 14.4163C24.7346 14.4907 24.7 14.543 24.6506 14.5728C24.6016 14.603 24.5411 14.6083 24.4706 14.5896L24.2882 14.5402ZM25.1877 14.6578L25.3605 14.711C25.3979 14.7226 25.4282 14.7235 25.4502 14.7134C25.4728 14.7038 25.4886 14.6822 25.4987 14.6496C25.5083 14.6189 25.5069 14.5925 25.4949 14.5714C25.4829 14.5498 25.4594 14.5339 25.4258 14.5234L25.2458 14.4682L25.1877 14.6578ZM24.917 15.0149L25.1363 14.2997L25.4834 14.4062C25.5611 14.4302 25.6139 14.4648 25.6413 14.5094C25.6686 14.5546 25.6715 14.6112 25.6504 14.6798C25.637 14.7235 25.6168 14.7571 25.5894 14.7806C25.5621 14.8042 25.5299 14.8162 25.4925 14.8162C25.5198 14.8368 25.5371 14.8603 25.5434 14.8872C25.5491 14.9141 25.5458 14.9515 25.5333 15L25.5102 15.0854C25.5102 15.0859 25.5098 15.0869 25.5093 15.0883C25.4973 15.131 25.4982 15.1598 25.5131 15.1742L25.5064 15.1963L25.3451 15.1464C25.3432 15.1349 25.3427 15.1214 25.3446 15.1056C25.3466 15.0902 25.3499 15.072 25.3557 15.0514L25.3768 14.9755C25.3888 14.9309 25.3898 14.8982 25.3797 14.8786C25.3691 14.8584 25.3446 14.8421 25.3053 14.8301L25.1493 14.7821L25.0638 15.06L24.917 15.0149ZM26.056 15.0125C26.0277 15.0898 26.0234 15.156 26.0421 15.2117C26.0603 15.2669 26.1006 15.3058 26.1626 15.3283C26.225 15.3509 26.2811 15.3475 26.3315 15.3173C26.3819 15.287 26.4213 15.2333 26.4496 15.156C26.4774 15.0787 26.4822 15.0125 26.4635 14.9573C26.4443 14.9016 26.4035 14.8622 26.3411 14.8397C26.2797 14.8171 26.2235 14.821 26.1736 14.8507C26.1237 14.881 26.0843 14.9347 26.056 15.0125ZM25.9086 14.9582C25.9504 14.845 26.0142 14.7662 26.1002 14.7221C26.1866 14.6784 26.2821 14.6755 26.3872 14.7139C26.4918 14.7523 26.5634 14.8162 26.6013 14.9054C26.6392 14.9952 26.6373 15.0965 26.5955 15.2098C26.5542 15.323 26.4904 15.4018 26.4035 15.4454C26.3171 15.4896 26.2211 15.4925 26.1165 15.4541C26.0114 15.4157 25.9403 15.3518 25.9029 15.2626C25.8654 15.1733 25.8674 15.0715 25.9086 14.9582ZM27.293 15.8371C27.2526 15.8606 27.2128 15.8736 27.173 15.876C27.1336 15.8784 27.0918 15.8702 27.0482 15.8515C26.9522 15.8102 26.8883 15.744 26.8571 15.6518C26.8259 15.5592 26.8336 15.4589 26.8797 15.3504C26.9267 15.2405 26.9939 15.1656 27.0813 15.1253C27.1686 15.0845 27.2622 15.0854 27.3611 15.1277C27.4475 15.1646 27.509 15.215 27.5459 15.2798C27.5829 15.3442 27.591 15.4147 27.5704 15.4915L27.4259 15.4301C27.4326 15.3907 27.4264 15.3557 27.4072 15.3254C27.3885 15.2952 27.3573 15.2712 27.3141 15.2525C27.2565 15.228 27.2022 15.2299 27.1514 15.2582C27.1005 15.2861 27.0592 15.3374 27.0275 15.4118C26.9954 15.4867 26.9877 15.5525 27.004 15.6096C27.0203 15.6667 27.0582 15.708 27.1178 15.7334C27.1629 15.7522 27.2061 15.755 27.2474 15.7416C27.2891 15.7277 27.3232 15.6994 27.3501 15.6566L27.1941 15.5899L27.244 15.4723L27.5291 15.5938L27.3702 15.9662L27.2757 15.9259L27.293 15.8371ZM28.0043 15.8174L28.1666 15.8971C28.2021 15.9144 28.2314 15.9197 28.2549 15.9134C28.2784 15.9072 28.2976 15.889 28.313 15.8578C28.3269 15.829 28.3298 15.803 28.3211 15.78C28.3125 15.757 28.2918 15.7378 28.2602 15.7219L28.0912 15.6394L28.0043 15.8174ZM27.6808 16.1275L28.0096 15.456L28.3355 15.6154C28.409 15.6514 28.4555 15.6936 28.4752 15.7421C28.4954 15.7906 28.4896 15.8472 28.4579 15.9115C28.4378 15.9528 28.4123 15.9826 28.3821 16.0018C28.3514 16.0205 28.3173 16.0272 28.2803 16.0214C28.3043 16.0464 28.3173 16.0718 28.3197 16.0997C28.3211 16.127 28.312 16.1635 28.2918 16.2091L28.2558 16.2902C28.2558 16.2907 28.2554 16.2917 28.2544 16.2926C28.2357 16.333 28.2323 16.3618 28.2448 16.3786L28.2347 16.3987L28.083 16.3248C28.083 16.3128 28.085 16.2994 28.0893 16.2845C28.0936 16.2691 28.0998 16.2518 28.109 16.2326L28.1416 16.1611C28.1603 16.1189 28.1661 16.0867 28.1594 16.0651C28.1522 16.0435 28.1301 16.0238 28.0936 16.0061L27.9472 15.9341L27.819 16.1952L27.6808 16.1275ZM28.517 16.5571L28.8808 15.9034L29.3555 16.1674L29.2922 16.2811L28.9499 16.0906L28.8726 16.2302L29.1856 16.404L29.1232 16.5158L28.8102 16.3421L28.7166 16.5101L29.0752 16.7093L29.008 16.8302L28.517 16.5571ZM29.3613 16.789L29.4914 16.8672C29.475 16.9051 29.4736 16.9402 29.487 16.9714C29.5005 17.0026 29.5298 17.0318 29.5749 17.0587C29.6133 17.0822 29.6459 17.0928 29.6738 17.0904C29.7016 17.089 29.7232 17.0746 29.7395 17.0477C29.7626 17.0088 29.7261 16.943 29.6301 16.8504L29.6267 16.847C29.6243 16.8446 29.6205 16.8408 29.6152 16.836C29.5629 16.7866 29.5293 16.7462 29.5139 16.7146C29.4995 16.6867 29.4942 16.6565 29.4971 16.6248C29.5 16.5931 29.5115 16.561 29.5317 16.5274C29.5691 16.465 29.619 16.4304 29.6814 16.4222C29.7438 16.415 29.8154 16.4352 29.895 16.4832C29.9699 16.5283 30.0179 16.5816 30.0386 16.6421C30.0597 16.703 30.0515 16.7664 30.0155 16.8322L29.8888 16.7558C29.9051 16.7232 29.9075 16.6925 29.8955 16.6637C29.884 16.6344 29.8581 16.6075 29.8187 16.584C29.7842 16.5629 29.7534 16.5538 29.7266 16.5557C29.6997 16.5581 29.679 16.5715 29.6637 16.5965C29.643 16.6306 29.6646 16.6776 29.727 16.7386C29.7438 16.7549 29.7573 16.7678 29.7664 16.777C29.8062 16.8173 29.8336 16.8466 29.8494 16.8648C29.8648 16.8835 29.8773 16.9008 29.8869 16.9181C29.9042 16.9483 29.9123 16.979 29.9109 17.0107C29.9094 17.0429 29.8989 17.0755 29.8787 17.1086C29.8384 17.1754 29.7851 17.2133 29.7179 17.2229C29.6507 17.2325 29.5763 17.2128 29.4947 17.1634C29.4141 17.1149 29.3618 17.0582 29.3387 16.993C29.3157 16.9282 29.3229 16.86 29.3613 16.789ZM30.1494 17.2819L30.2752 17.3674C30.257 17.4043 30.2541 17.4389 30.2661 17.471C30.2776 17.5027 30.3054 17.5334 30.3491 17.5627C30.3861 17.5877 30.4182 17.6002 30.4461 17.5997C30.4739 17.5992 30.4965 17.5862 30.5138 17.5603C30.5392 17.5224 30.5061 17.4552 30.4149 17.3573C30.4139 17.3563 30.4125 17.3549 30.412 17.3539C30.4091 17.3515 30.4058 17.3477 30.401 17.3419C30.3515 17.2901 30.3198 17.2483 30.3059 17.2157C30.2934 17.1874 30.2896 17.1566 30.2939 17.1254C30.2987 17.0938 30.3117 17.0621 30.3338 17.0299C30.3746 16.9694 30.4264 16.9373 30.4888 16.933C30.5517 16.9286 30.6218 16.9526 30.699 17.005C30.7715 17.0539 30.8162 17.1091 30.8339 17.171C30.8517 17.233 30.8406 17.2954 30.8008 17.3592L30.6779 17.2766C30.6962 17.245 30.7 17.2142 30.6899 17.1845C30.6798 17.1547 30.6554 17.1269 30.6174 17.101C30.5838 17.0784 30.5536 17.0674 30.5267 17.0683C30.4998 17.0693 30.4782 17.0818 30.4619 17.1058C30.4398 17.1384 30.4586 17.1869 30.5176 17.2507C30.5339 17.268 30.5464 17.2819 30.555 17.2915C30.5925 17.3333 30.6184 17.3645 30.6333 17.3832C30.6477 17.4024 30.6592 17.4211 30.6678 17.4384C30.6837 17.4696 30.6899 17.5008 30.687 17.5325C30.6842 17.5642 30.6717 17.5963 30.6496 17.6285C30.6064 17.6928 30.5507 17.7283 30.483 17.7341C30.4154 17.7403 30.3424 17.7168 30.2632 17.663C30.1854 17.6102 30.1365 17.5507 30.1168 17.485C30.0966 17.4187 30.1077 17.351 30.1494 17.2819ZM31.1003 17.7864C31.0504 17.8522 31.0264 17.9146 31.0283 17.9726C31.0298 18.0312 31.0571 18.0802 31.1094 18.12C31.1622 18.1598 31.2174 18.1728 31.2746 18.1589C31.3312 18.145 31.3845 18.1046 31.4344 18.0389C31.4838 17.9736 31.5078 17.9112 31.5059 17.8526C31.5035 17.7941 31.4762 17.7446 31.4234 17.7048C31.371 17.665 31.3163 17.6525 31.2597 17.6669C31.203 17.6808 31.1498 17.7206 31.1003 17.7864ZM30.975 17.6918C31.048 17.5958 31.132 17.5392 31.227 17.5219C31.3226 17.5051 31.4147 17.5306 31.504 17.5978C31.5933 17.6654 31.6427 17.747 31.6528 17.844C31.6624 17.9405 31.6312 18.037 31.5587 18.133C31.4858 18.2294 31.4013 18.2861 31.3058 18.3024C31.2102 18.3192 31.1176 18.2942 31.0288 18.227C30.9395 18.1594 30.8901 18.0773 30.8805 17.9808C30.8709 17.8848 30.9021 17.7883 30.975 17.6918Z" fill="#00923F"/>
</g>
<defs>
<clipPath id="clip0_337_393">
<rect width="48" height="33.6" fill="white"/>
</clipPath>
</defs>
</svg>
