<svg width="90" height="18" viewBox="0 0 90 18" fill="none" xmlns="http://www.w3.org/2000/svg">
<path d="M89.0417 0.179136C88.9163 0.0343483 88.7183 -0.0314643 88.5005 0.0146045L72.9516 4.17396C72.7701 4.2299 72.6315 4.3714 72.582 4.55568C72.5357 4.73666 72.5919 4.93081 72.7239 5.06243L74.955 7.2869L71.6578 8.17208C71.4763 8.22473 71.3377 8.36952 71.2915 8.5538C71.2452 8.73478 71.3014 8.92893 71.4334 9.06055L80.0808 17.6754C80.1831 17.7774 80.3217 17.8334 80.4603 17.8334C80.5033 17.8334 80.5495 17.8268 80.5924 17.8169C80.7739 17.7709 80.9191 17.6294 80.9785 17.4352L81.8532 14.1643L84.0975 16.4052C84.1999 16.504 84.3352 16.5599 84.4738 16.5599C84.5167 16.5599 84.5629 16.5533 84.6058 16.5434C84.7907 16.4974 84.9326 16.3592 84.992 16.165L89.154 0.672731C89.2035 0.501618 89.1606 0.314052 89.0417 0.179136V0.179136ZM80.2788 16.6257L72.4862 8.86311L75.6779 8.00755L81.1304 13.4437L80.2788 16.6257V16.6257ZM84.2956 15.3522L82.1172 13.1804L84.1338 5.67449C84.1933 5.48693 84.1405 5.28291 84.0018 5.1447C83.8632 5.00649 83.6619 4.95384 83.4837 5.00649L75.9419 7.02365L73.7767 4.865L88.144 1.02154L84.2956 15.3522Z" fill="#F9E757"/>
<path d="M4.57632 3.9551L4.57632 12.4864H2.82437L2.82437 3.9551L4.57632 3.9551ZM7.20132 3.9551V5.33205H0.240385L0.240385 3.9551L7.20132 3.9551ZM9.37515 7.52932V12.4864H7.68765L7.68765 6.14651L9.27554 6.14651L9.37515 7.52932ZM11.2853 6.10549L11.256 7.66994C11.174 7.65823 11.0744 7.64846 10.9572 7.64065C10.8439 7.62893 10.7404 7.62307 10.6466 7.62307C10.4084 7.62307 10.2013 7.65432 10.0255 7.71682C9.85367 7.77541 9.70914 7.8633 9.59195 7.98049C9.47867 8.09768 9.39273 8.24026 9.33414 8.40823C9.27945 8.57619 9.2482 8.7676 9.24039 8.98244L8.90054 8.87698C8.90054 8.46682 8.94156 8.08987 9.02359 7.74612C9.10562 7.39846 9.22476 7.09573 9.38101 6.83791C9.54117 6.5801 9.73648 6.38088 9.96695 6.24026C10.1974 6.09963 10.4611 6.02932 10.758 6.02932C10.8517 6.02932 10.9474 6.03713 11.0451 6.05276C11.1427 6.06448 11.2228 6.08205 11.2853 6.10549ZM13.8634 6.14651V12.4864H12.1701V6.14651H13.8634ZM12.0646 4.49416C12.0646 4.24807 12.1505 4.04494 12.3224 3.88479C12.4943 3.72463 12.7248 3.64455 13.0138 3.64455C13.299 3.64455 13.5275 3.72463 13.6994 3.88479C13.8752 4.04494 13.963 4.24807 13.963 4.49416C13.963 4.74026 13.8752 4.94338 13.6994 5.10354C13.5275 5.26369 13.299 5.34377 13.0138 5.34377C12.7248 5.34377 12.4943 5.26369 12.3224 5.10354C12.1505 4.94338 12.0646 4.74026 12.0646 4.49416ZM17.0392 3.48635V12.4864L15.3459 12.4864V3.48635H17.0392ZM20.0802 3.48635V12.4864H18.3927V3.48635H20.0802ZM19.84 9.09377H19.3771C19.381 8.65237 19.4396 8.24612 19.5529 7.87502C19.6662 7.50002 19.8283 7.1758 20.0392 6.90237C20.2502 6.62502 20.5021 6.41018 20.7951 6.25784C21.0919 6.10549 21.4201 6.02932 21.7794 6.02932C22.0919 6.02932 22.3752 6.07424 22.6291 6.16409C22.8869 6.25002 23.1076 6.39065 23.2912 6.58596C23.4787 6.77737 23.6232 7.02932 23.7248 7.34182C23.8263 7.65432 23.8771 8.03323 23.8771 8.47854V12.4864H22.1779V8.46682C22.1779 8.18557 22.1369 7.96487 22.0548 7.80471C21.9767 7.64065 21.8615 7.52541 21.7091 7.45901C21.5607 7.38869 21.3771 7.35354 21.1584 7.35354C20.9162 7.35354 20.7091 7.39846 20.5373 7.4883C20.3693 7.57815 20.2345 7.70315 20.133 7.8633C20.0314 8.01955 19.9572 8.20315 19.9103 8.41409C19.8634 8.62502 19.84 8.85159 19.84 9.09377ZM28.5822 11.0567V8.23244C28.5822 8.02932 28.549 7.85549 28.4826 7.71096C28.4162 7.56252 28.3127 7.44729 28.172 7.36526C28.0353 7.28323 27.8576 7.24221 27.6388 7.24221C27.4513 7.24221 27.2892 7.27541 27.1525 7.34182C27.0158 7.40432 26.9103 7.49612 26.8361 7.61721C26.7619 7.7344 26.7248 7.87307 26.7248 8.03323H25.0373C25.0373 7.76369 25.0998 7.50784 25.2248 7.26565C25.3498 7.02346 25.5314 6.81057 25.7697 6.62698C26.008 6.43948 26.2912 6.29299 26.6193 6.18752C26.9513 6.08205 27.3224 6.02932 27.7326 6.02932C28.2248 6.02932 28.6623 6.11135 29.0451 6.27541C29.4279 6.43948 29.7287 6.68557 29.9474 7.01369C30.1701 7.34182 30.2814 7.75198 30.2814 8.24416V10.9571C30.2814 11.3047 30.3029 11.5899 30.3459 11.8125C30.3888 12.0313 30.4513 12.2227 30.5334 12.3867V12.4864H28.8283C28.7462 12.3145 28.6837 12.0996 28.6408 11.8418C28.6017 11.5801 28.5822 11.3184 28.5822 11.0567ZM28.8048 8.62502L28.8166 9.5801H27.8732C27.6505 9.5801 27.4572 9.60549 27.2931 9.65627C27.1291 9.70705 26.9943 9.77932 26.8888 9.87307C26.7834 9.96291 26.7052 10.0684 26.6544 10.1895C26.6076 10.3106 26.5841 10.4434 26.5841 10.5879C26.5841 10.7324 26.6173 10.8633 26.6837 10.9805C26.7502 11.0938 26.8459 11.1836 26.9709 11.25C27.0959 11.3125 27.2423 11.3438 27.4103 11.3438C27.6642 11.3438 27.8849 11.293 28.0724 11.1914C28.2599 11.0899 28.4044 10.9649 28.506 10.8164C28.6115 10.668 28.6662 10.5274 28.6701 10.3946L29.1154 11.1094C29.0529 11.2696 28.9669 11.4356 28.8576 11.6074C28.7521 11.7793 28.6173 11.9414 28.4533 12.0938C28.2892 12.2422 28.0919 12.3653 27.8615 12.4629C27.631 12.5567 27.3576 12.6035 27.0412 12.6035C26.6388 12.6035 26.2736 12.5235 25.9455 12.3633C25.6212 12.1992 25.3634 11.9746 25.172 11.6895C24.9845 11.4004 24.8908 11.0723 24.8908 10.7051C24.8908 10.3731 24.9533 10.0781 25.0783 9.82034C25.2033 9.56252 25.3869 9.34573 25.6291 9.16994C25.8752 8.99026 26.1818 8.85549 26.549 8.76565C26.9162 8.6719 27.3419 8.62502 27.8263 8.62502H28.8048ZM36.5451 3.9551V12.4864H34.7931V3.9551L36.5451 3.9551ZM42.0998 6.14651H43.6291V12.2754C43.6291 12.8535 43.5002 13.3438 43.2423 13.7461C42.9884 14.1524 42.633 14.459 42.1759 14.666C41.7189 14.877 41.1877 14.9824 40.5822 14.9824C40.3166 14.9824 40.0353 14.9473 39.7384 14.877C39.4455 14.8067 39.1642 14.6973 38.8947 14.5489C38.6291 14.4004 38.4064 14.2129 38.2267 13.9864L38.9709 12.9903C39.1662 13.2168 39.3927 13.3926 39.6505 13.5176C39.9084 13.6465 40.1935 13.711 40.506 13.711C40.8107 13.711 41.0685 13.6543 41.2794 13.541C41.4904 13.4317 41.6525 13.2696 41.7658 13.0547C41.8791 12.8438 41.9357 12.5879 41.9357 12.2871V7.61135L42.0998 6.14651ZM37.8341 9.3926V9.26955C37.8341 8.78518 37.8927 8.34573 38.0099 7.95119C38.131 7.55276 38.3009 7.21096 38.5197 6.9258C38.7423 6.64065 39.0119 6.41994 39.3283 6.26369C39.6447 6.10744 40.0021 6.02932 40.4005 6.02932C40.8224 6.02932 41.1759 6.10744 41.4611 6.26369C41.7462 6.41994 41.9806 6.6426 42.1642 6.93166C42.3478 7.21682 42.4904 7.55471 42.5919 7.94534C42.6974 8.33205 42.7794 8.75588 42.838 9.21682V9.48635C42.7794 9.92776 42.6916 10.3379 42.5744 10.7168C42.4572 11.0957 42.3029 11.4278 42.1115 11.7129C41.9201 11.9942 41.6818 12.2129 41.3966 12.3692C41.1154 12.5254 40.7794 12.6035 40.3888 12.6035C39.9982 12.6035 39.6447 12.5235 39.3283 12.3633C39.0158 12.2031 38.7482 11.9785 38.5255 11.6895C38.3029 11.4004 38.131 11.0606 38.0099 10.6699C37.8927 10.2793 37.8341 9.85354 37.8341 9.3926ZM39.5216 9.26955V9.3926C39.5216 9.65432 39.547 9.89846 39.5978 10.125C39.6486 10.3516 39.7267 10.5528 39.8322 10.7285C39.9416 10.9004 40.0763 11.0352 40.2365 11.1328C40.4005 11.2266 40.5939 11.2735 40.8166 11.2735C41.1252 11.2735 41.3771 11.209 41.5724 11.0801C41.7677 10.9473 41.9142 10.7656 42.0119 10.5352C42.1095 10.3047 42.1662 10.0391 42.1818 9.7383V8.97073C42.174 8.72463 42.1408 8.50393 42.0822 8.30862C42.0236 8.1094 41.9416 7.93948 41.8361 7.79885C41.7306 7.65823 41.5939 7.54885 41.4259 7.47073C41.258 7.3926 41.0587 7.35354 40.8283 7.35354C40.6056 7.35354 40.4123 7.40432 40.2482 7.50588C40.088 7.60354 39.9533 7.7383 39.8439 7.91018C39.7384 8.08205 39.6584 8.28518 39.6037 8.51955C39.549 8.75002 39.5216 9.00002 39.5216 9.26955ZM46.5939 7.50002V12.4864H44.9064V6.14651H46.4884L46.5939 7.50002ZM46.3478 9.09377H45.8908C45.8908 8.62502 45.9513 8.20315 46.0724 7.82815C46.1935 7.44924 46.3634 7.12698 46.5822 6.86135C46.8009 6.59182 47.0607 6.38674 47.3615 6.24612C47.6662 6.10159 48.006 6.02932 48.381 6.02932C48.6779 6.02932 48.9494 6.07229 49.1955 6.15823C49.4416 6.24416 49.6525 6.38088 49.8283 6.56838C50.008 6.75588 50.1447 7.00393 50.2384 7.31252C50.3361 7.62112 50.3849 7.99807 50.3849 8.44338V12.4864H48.6857V8.43752C48.6857 8.15627 48.6466 7.93752 48.5685 7.78127C48.4904 7.62502 48.3752 7.51565 48.2228 7.45315C48.0744 7.38674 47.8908 7.35354 47.672 7.35354C47.4455 7.35354 47.2482 7.39846 47.0802 7.4883C46.9162 7.57815 46.7794 7.70315 46.6701 7.8633C46.5646 8.01955 46.4845 8.20315 46.4298 8.41409C46.3752 8.62502 46.3478 8.85159 46.3478 9.09377ZM53.4494 6.14651V12.4864H51.756V6.14651H53.4494ZM51.6505 4.49416C51.6505 4.24807 51.7365 4.04494 51.9084 3.88479C52.0802 3.72463 52.3107 3.64455 52.5998 3.64455C52.8849 3.64455 53.1134 3.72463 53.2853 3.88479C53.4611 4.04494 53.549 4.24807 53.549 4.49416C53.549 4.74026 53.4611 4.94338 53.2853 5.10354C53.1134 5.26369 52.8849 5.34377 52.5998 5.34377C52.3107 5.34377 52.0802 5.26369 51.9084 5.10354C51.7365 4.94338 51.6505 4.74026 51.6505 4.49416ZM57.9494 6.14651V7.34182L54.258 7.34182V6.14651L57.9494 6.14651ZM55.172 4.58205H56.8595V10.5762C56.8595 10.7598 56.883 10.9004 56.9298 10.9981C56.9806 11.0957 57.0548 11.1641 57.1525 11.2031C57.2502 11.2383 57.3732 11.2559 57.5216 11.2559C57.6271 11.2559 57.7209 11.252 57.8029 11.2442C57.8888 11.2324 57.9611 11.2207 58.0197 11.209L58.0255 12.4512C57.881 12.4981 57.7248 12.5352 57.5568 12.5625C57.3888 12.5899 57.2033 12.6035 57.0002 12.6035C56.6291 12.6035 56.3048 12.543 56.0275 12.4219C55.7541 12.2969 55.5431 12.0977 55.3947 11.8242C55.2462 11.5508 55.172 11.1914 55.172 10.7461V4.58205ZM61.8283 12.6035C61.3361 12.6035 60.8947 12.5254 60.5041 12.3692C60.1134 12.209 59.7814 11.9883 59.508 11.7071C59.2384 11.4258 59.0314 11.0996 58.8869 10.7285C58.7423 10.3535 58.6701 9.9551 58.6701 9.53323V9.29885C58.6701 8.81838 58.7384 8.37893 58.8752 7.98049C59.0119 7.58205 59.2072 7.23635 59.4611 6.94338C59.7189 6.65041 60.0314 6.4258 60.3986 6.26955C60.7658 6.1094 61.1798 6.02932 61.6408 6.02932C62.09 6.02932 62.4884 6.10354 62.8361 6.25198C63.1837 6.40041 63.4748 6.61135 63.7091 6.88479C63.9474 7.15823 64.1271 7.48635 64.2482 7.86916C64.3693 8.24807 64.4298 8.66994 64.4298 9.13479V9.83791H59.3908V8.71291H62.7716V8.58401C62.7716 8.34963 62.7287 8.14065 62.6427 7.95705C62.5607 7.76955 62.4357 7.62112 62.2677 7.51174C62.0998 7.40237 61.8849 7.34768 61.6232 7.34768C61.4005 7.34768 61.2091 7.39651 61.049 7.49416C60.8888 7.59182 60.758 7.72854 60.6564 7.90432C60.5587 8.0801 60.4845 8.28713 60.4337 8.52541C60.3869 8.75979 60.3634 9.0176 60.3634 9.29885V9.53323C60.3634 9.78713 60.3986 10.0215 60.4689 10.2364C60.5431 10.4512 60.6466 10.6367 60.7794 10.793C60.9162 10.9492 61.0802 11.0703 61.2716 11.1563C61.4669 11.2422 61.6877 11.2852 61.9337 11.2852C62.2384 11.2852 62.5216 11.2266 62.7834 11.1094C63.049 10.9883 63.2775 10.8067 63.4689 10.5645L64.2892 11.4551C64.1564 11.6465 63.9748 11.8301 63.7443 12.0059C63.5177 12.1817 63.2443 12.3262 62.924 12.4395C62.6037 12.5489 62.2384 12.6035 61.8283 12.6035Z" fill="#F9E757"/>
</svg>
